<?xml version="1.0" encoding="utf-8"?>
<!-- Generator: Adobe Illustrator 16.0.0, SVG Export Plug-In . SVG Version: 6.00 Build 0)  -->
<!DOCTYPE svg PUBLIC "-//W3C//DTD SVG 1.1//EN" "http://www.w3.org/Graphics/SVG/1.1/DTD/svg11.dtd">
<svg version="1.1" id="Layer_1" xmlns="http://www.w3.org/2000/svg" xmlns:xlink="http://www.w3.org/1999/xlink" x="0px" y="0px"
	 width="880.547px" height="880.558px" viewBox="0 0 880.547 880.558" enable-background="new 0 0 880.547 880.558"
	 xml:space="preserve">
<g>
	<g>
		<path fill="#00AEEF" d="M516.64,56.336L506.644,0h-66.371h-66.371l-12.445,70.121c-46.037,9.754-88.98,27.875-127.167,52.709
			l-58.414-40.793L82.02,175.889l40.805,58.408c-24.834,38.191-42.951,81.136-52.709,127.166L0,373.919v132.73l60.339,10.711
			C75.099,270.292,271.604,71.912,516.64,56.336z"/>
		<path fill="#00AEEF" d="M810.432,361.463c-4.674-22.041-11.313-43.35-19.636-63.802l-140.598,99.921
			c2.788,13.797,4.263,28.067,4.263,42.697c0,118.292-95.896,214.182-214.187,214.182c-94.955,0-175.427-61.809-203.504-147.372
			c-47.5,54.736-75.646,122.29-75.646,195.35c0,31.412,5.682,62.665,17.041,94.505l56.133-39.217
			c38.186,24.834,81.125,42.957,127.167,52.709l12.457,70.121h66.354h66.354l12.457-70.121
			c46.042-9.753,88.98-27.875,127.167-52.709l58.414,40.805l93.852-93.852l-40.794-58.419
			c24.834-38.18,42.951-81.125,52.709-127.167l70.116-12.445v-132.73L810.432,361.463z"/>
		<path fill="#2BB673" d="M228.193,470.091c7.996-8.177,16.387-16.128,25.29-23.752c78.619-67.283,183.739-104.349,295.988-104.349
			h15.266v78.85l76.631-54.455l136.486-96.982l79.334-56.381l-72.053-50.524l-97.646-68.465L562.924,6.701V82.33v3.424h-15.266
			c-252.413,0-457.765,207.007-457.765,461.453c0,13.56,0.659,27.109,1.892,40.602c2.518,27.481,7.541,54.748,14.991,81.44
			c6.792,24.316,15.571,48.159,26.265,71.282c-1.644-12.67-2.455-25.364-2.455-38.091
			C130.585,616.055,165.042,534.728,228.193,470.091z"/>
	</g>
</g>
</svg>
