<?xml version="1.0" encoding="utf-8"?>
<!-- Generator: Adobe Illustrator 16.0.0, SVG Export Plug-In . SVG Version: 6.00 Build 0)  -->
<!DOCTYPE svg PUBLIC "-//W3C//DTD SVG 1.1//EN" "http://www.w3.org/Graphics/SVG/1.1/DTD/svg11.dtd">
<svg version="1.1" id="Layer_1" xmlns="http://www.w3.org/2000/svg" xmlns:xlink="http://www.w3.org/1999/xlink" x="0px" y="0px"
	 width="2436.159px" height="966.966px" viewBox="0 0 2436.159 966.966" enable-background="new 0 0 2436.159 966.966"
	 xml:space="preserve">
<g>
	<g>
		<path fill="#00AEEF" d="M1269.642,38.041L1262.903,0h-44.824h-44.81l-8.411,47.35c-31.09,6.586-60.081,18.822-85.862,35.591
			l-39.455-27.545l-63.366,63.373l27.545,39.44c-16.761,25.789-29.006,54.787-35.592,85.869l-47.35,8.411v89.626l40.748,7.232
			C971.491,182.515,1104.185,48.559,1269.642,38.041z"/>
		<path fill="#00AEEF" d="M1468.028,244.078c-3.148-14.883-7.636-29.272-13.264-43.083l-94.926,67.473
			c1.871,9.316,2.875,18.952,2.875,28.831c0,79.876-64.75,144.626-144.634,144.626c-64.111,0-118.457-41.737-137.409-99.512
			c-32.078,36.96-51.091,82.583-51.091,131.91c0,21.219,3.848,42.315,11.514,63.822l37.904-26.481
			c25.781,16.762,54.772,29.006,85.862,35.592l8.411,47.35h44.81h44.81l8.411-47.35c31.09-6.586,60.08-18.83,85.861-35.592
			l39.455,27.546l63.366-63.366l-27.546-39.456c16.776-25.781,29.006-54.779,35.592-85.869l47.35-8.404v-89.626L1468.028,244.078z"
			/>
		<path fill="#2BB673" d="M1074.875,317.43c5.399-5.522,11.058-10.891,17.081-16.04c53.084-45.433,124.069-70.461,199.862-70.461
			h10.313v53.243l51.745-36.771l92.158-65.487l53.57-38.071l-48.657-34.117l-65.937-46.231l-84.112-58.97v51.068v2.312h-10.313
			c-170.431,0-309.102,139.782-309.102,311.597c0,9.156,0.441,18.305,1.278,27.416c1.703,18.556,5.095,36.976,10.129,55
			c4.578,16.412,10.511,32.519,17.736,48.125c-1.111-8.548-1.658-17.126-1.658-25.721
			C1008.969,415.991,1032.226,361.075,1074.875,317.43z"/>
	</g>
	<g>
		<path fill="#00AEEF" d="M0,711.792h60.933v159.365c0,11.21,2.418,19.857,7.271,25.918c4.852,6.092,11.772,9.104,20.762,9.104
			c8.989,0,15.91-3.004,20.747-9.004c4.852-6,7.286-14.686,7.286-26.017V711.792h60.232v159.365c0,11.21,2.388,19.857,7.179,25.918
			c4.791,6.092,11.727,9.104,20.838,9.104c8.882,0,15.743-3.004,20.579-9.004c4.852-6,7.256-14.686,7.256-26.017V711.792h61.129
			v155.342c0,30.481-8.107,54.741-24.351,72.773c-16.199,18.032-37.752,27.059-64.613,27.059c-10.739,0-20.93-2.183-30.557-6.555
			c-9.644-4.396-18.815-10.967-27.577-19.713c-8.639,8.639-17.842,15.18-27.591,19.606c-9.765,4.434-19.941,6.662-30.558,6.662
			c-26.861,0-48.414-9.042-64.643-27.158c-8.047-9.088-14.115-19.675-18.207-31.683C2.038,896.094,0,882.436,0,867.134V711.792z"/>
		<path fill="#00AEEF" d="M319.962,873.613c0-12.374,2.22-24.017,6.662-34.931c4.427-10.928,11.089-21.036,19.956-30.397
			c8.183-8.412,17.811-14.967,28.899-19.705c11.103-4.73,22.496-7.096,34.162-7.096c12.138,0,23.652,2.319,34.573,6.921
			c10.937,4.616,20.595,11.278,28.991,19.978c8.411,8.693,14.845,18.648,19.362,29.843c4.487,11.202,6.739,23.013,6.739,35.387
			c0,6.426-0.517,12.488-1.583,18.214c-1.034,5.727-2.752,11.506-5.08,17.325c-4.304,10.868-10.739,20.716-19.256,29.523
			c-8.518,8.814-18.237,15.522-29.173,20.146c-10.92,4.601-22.435,6.92-34.573,6.92c-11.91,0-23.241-2.281-33.979-6.822
			c-10.738-4.563-20.473-11.316-29.158-20.245c-8.7-8.928-15.302-18.937-19.804-30.025
			C322.213,897.554,319.962,885.873,319.962,873.613z M377.411,873.263c0,9.933,3.149,18.45,9.461,25.561
			c6.297,7.118,13.887,10.693,22.769,10.693c8.883,0,16.549-3.521,23.014-10.579c6.494-7.088,9.719-15.628,9.719-25.675
			c0-9.924-3.209-18.442-9.628-25.568c-6.419-7.11-14.115-10.693-23.105-10.693c-8.761,0-16.305,3.544-22.693,10.609
			C380.605,854.677,377.411,863.217,377.411,873.263z"/>
		<path fill="#00AEEF" d="M525.056,962.578V784.991h51.305v26.626c5.612-9.104,12.867-15.819,21.827-20.139
			c8.913-4.327,20.229-6.487,33.873-6.487h6.662v53.769h-2.449c-20.199,0-34.771,4.457-43.699,13.4
			c-8.943,8.921-13.4,23.492-13.4,43.707v66.712H525.056z"/>
		<path fill="#00AEEF" d="M656.412,962.578V711.792h55.684v130.283h10.313c5.521,0,10.13-1.87,13.948-5.673
			c3.802-3.795,7.727-11.012,11.818-21.629l11.56-29.782h58.864l-20.838,53.769c-1.87,5.026-4.806,9.347-8.775,12.966
			c-3.955,3.621-8.7,6.358-14.176,8.213c13.765,3.278,23.789,9.271,30.04,17.963c6.236,8.693,9.354,21.173,9.354,37.395v47.281
			h-55.685v-40.452c0-9.917-2.129-17.134-6.388-21.621c-4.229-4.502-10.952-6.753-20.139-6.753h-19.895v68.826H656.412z"/>
		<path fill="#00AEEF" d="M836.09,837.002c0-17.506,3.209-33.971,9.644-49.372c6.403-15.415,15.819-29.401,28.215-41.957
			c12.351-12.556,26.329-22.04,41.919-28.443c15.591-6.441,31.972-9.651,49.129-9.651c17.4,0,33.904,3.271,49.479,9.811
			c15.59,6.541,29.462,15.948,41.6,28.199c11.772,11.917,20.959,25.812,27.485,41.677c6.54,15.894,9.825,32.474,9.825,49.737
			c0,17.637-3.209,34.368-9.537,50.186c-6.373,15.819-15.636,29.774-27.773,41.852c-12.138,12.092-26.071,21.438-41.783,28.032
			c-15.697,6.593-32.125,9.894-49.296,9.894c-17.385,0-33.706-3.24-48.947-9.719c-15.241-6.487-29.112-15.994-41.584-28.542
			c-12.503-12.564-22.009-26.625-28.565-42.224C839.36,870.898,836.09,854.403,836.09,837.002z M900.019,836.66
			c0,18.8,6.327,34.793,19.013,47.988c12.67,13.188,28.002,19.773,45.965,19.773c17.75,0,32.93-6.555,45.54-19.689
			c12.609-13.134,18.921-29.159,18.921-48.072c0-19.013-6.251-35.022-18.754-47.988c-12.487-12.952-27.728-19.431-45.707-19.431
			c-17.963,0-33.295,6.495-45.965,19.53C906.346,801.783,900.019,817.754,900.019,836.66z"/>
		<path fill="#00AEEF" d="M1119.836,962.578V784.991h51.304v26.626c5.597-9.104,12.868-15.819,21.796-20.139
			c8.929-4.327,20.214-6.487,33.889-6.487h6.662v53.769h-2.465c-20.184,0-34.755,4.457-43.683,13.4
			c-8.944,8.921-13.401,23.492-13.401,43.707v66.712H1119.836z"/>
		<path fill="#00AEEF" d="M1428.253,711.792v147.463c0,16.708-0.653,28.436-1.931,35.196c-1.064,7.233-3.042,13.963-5.963,20.146
			c-7.118,15.636-17.917,28.085-32.397,37.303c-14.465,9.233-30.725,13.841-48.688,13.841c-25.918,0-47.289-8.586-64.111-25.766
			c-16.792-17.15-25.204-39.151-25.204-66.013c0-26.511,8.412-48.437,25.264-65.761c16.853-17.34,38.132-26.009,63.913-26.009
			c2.221,0,4.426,0,6.647,0c2.083,0.357,4.365,0.646,6.814,0.882c2.448,0.229,6.068,0.868,10.844,1.917v58.148l-12.579-3.323
			c-3.498-0.7-6.677-1.057-9.613-1.057c-10.464,0-18.769,3.202-24.96,9.552c-6.16,6.366-9.263,14.906-9.263,25.652
			c0,10.989,2.966,19.591,8.837,25.834c5.902,6.252,13.766,9.354,23.667,9.354c10.602,0,18.739-3.376,24.458-10.146
			c5.704-6.776,8.563-16.518,8.563-29.241V711.792H1428.253z"/>
		<path fill="#00AEEF" d="M1637.698,896.558c-9.34,22.07-22.436,39.105-39.318,51.152c-16.868,12.023-35.927,18.031-57.176,18.031
			c-11.666,0-23.012-2.281-33.979-6.822c-10.981-4.563-20.746-11.209-29.325-19.978c-8.594-8.762-15.134-18.747-19.621-29.941
			c-4.502-11.202-6.738-23.014-6.738-35.387c0-12.602,2.236-24.428,6.738-35.462c4.487-11.043,11.135-20.998,19.88-29.865
			c8.411-8.412,18.009-14.921,28.809-19.515c10.814-4.624,22.222-6.921,34.237-6.921c17.857,0,33.98,4.753,48.338,14.259
			c14.374,9.522,26.224,23.386,35.562,41.608l-85.999,58.483l-21.536-32.572l46.619-32.352c-2.813-1.879-5.871-3.354-9.217-4.412
			c-3.316-1.042-6.8-1.589-10.419-1.589c-10.755,0-20.018,4.183-27.852,12.526c-7.849,8.343-11.742,18.587-11.742,30.725
			c0,12.389,3.789,22.785,11.378,31.188c7.59,8.412,16.884,12.602,27.865,12.602c10.282,0,19.772-3.095,28.534-9.263
			c8.762-6.206,16.306-15.195,22.603-26.998L1637.698,896.558z"/>
		<path fill="#00AEEF" d="M1657.502,962.578V784.991h51.319v26.626c5.597-9.104,12.869-15.819,21.796-20.139
			c8.929-4.327,20.245-6.487,33.89-6.487h6.66v53.769h-2.434c-20.228,0-34.786,4.457-43.713,13.4
			c-8.944,8.921-13.401,23.492-13.401,43.707v66.712H1657.502z"/>
		<path fill="#00AEEF" d="M1944.898,770.632l-5.43-0.342h-8.579c-27.211,0-48.109,5.749-62.695,17.24
			c-14.618,11.514-21.902,27.987-21.902,49.471c0,21.728,7.269,38.345,21.796,49.844c14.541,11.492,35.485,17.233,62.802,17.233
			h8.762h5.247v58.499h-6.479c-21.72,0-40.763-1.757-57.114-5.263c-16.335-3.498-30.177-8.799-41.492-15.925
			c-18.208-11.78-32.338-26.755-42.377-44.923c-10.054-18.153-15.073-37.965-15.073-59.464c0-21.598,4.943-41.341,14.8-59.274
			c9.871-17.933,24.094-32.839,42.65-44.749c11.087-7.004,24.837-12.297,41.249-15.864c16.396-3.552,35.53-5.324,57.357-5.324h6.479
			V770.632z"/>
		<path fill="#00AEEF" d="M1959.257,962.578l27.151-202.98c2.098-16.343,7.21-29.029,15.316-38.094
			c8.122-9.035,18.602-13.56,31.454-13.56c11.895,0,21.902,3.901,30.024,11.727c8.122,7.826,14.102,19.431,17.949,34.854
			l16.457,69.533c1.643,6.769,3.057,14.168,4.199,22.237l2.979,27.667c0-4.775,0.305-9.628,0.883-14.541
			c0.243-1.749,0.896-6.35,2.007-13.841c1.125-7.468,2.54-14.632,4.306-21.522l16.456-69.533c3.499-15.195,9.37-26.74,17.614-34.687
			c8.214-7.933,18.42-11.895,30.557-11.895c12.609,0,22.984,4.457,31.091,13.393c8.091,8.936,13.279,21.674,15.499,38.261
			l27.302,202.98h-59.897l-13.994-156.741l-1.947-23.819l-1.384-22.42l-5.079,26.101c-1.05,5.719-1.688,9.233-1.918,10.502
			c-0.258,1.285-0.897,3.917-1.947,7.879l-26.1,121.917c-3.041,13.879-7.164,23.804-12.335,29.751
			c-5.202,5.962-12.229,8.929-21.112,8.929c-8.746,0-15.696-2.966-20.837-8.929c-5.142-5.947-9.278-15.872-12.441-29.751
			l-26.27-121.917l-8.396-41.851l-0.518-2.631c0,6.297-0.183,12.731-0.532,19.271c-0.351,6.533-1.005,14.191-1.933,22.937
			l-0.348,4.031l-14.01,156.741H1959.257z"/>
		<path fill="#00AEEF" d="M2266.641,962.578v-59.89h86.332c4.898,0,8.746-1.042,11.561-3.142c2.8-2.114,4.197-5.141,4.197-9.11
			c0-3.384-1.397-6.83-4.197-10.336c-2.814-3.506-7.118-7.064-12.96-10.685l-48.154-29.089
			c-10.981-6.747-19.759-15.484-26.284-26.177c-6.54-10.678-9.796-21.69-9.796-33.007c0-10.974,1.825-20.898,5.507-29.774
			c3.682-8.875,9.247-16.526,16.731-22.945c6.768-5.825,15.331-10.069,25.659-12.7c10.328-2.616,26.527-3.932,48.596-3.932h57.268
			v57.449h-65.662c-9.233,0-15.546,0.722-18.937,2.183c-3.378,1.452-5.081,3.939-5.081,7.445c0,3.384,1.384,6.73,4.123,10.069
			c2.753,3.331,6.858,6.685,12.351,10.069L2395,827.032c13.323,8.054,23.499,17.705,30.571,28.991
			c7.059,11.248,10.588,23.477,10.588,36.694c0,11.431-2.359,21.933-7.089,31.523c-4.731,9.567-11.409,17.454-20.048,23.629
			c-7.133,5.035-15.529,8.822-25.219,11.385c-4.669,1.049-10.693,1.878-18.039,2.456c-7.362,0.57-16.184,0.867-26.45,0.867h-3.849
			H2266.641z"/>
	</g>
</g>
</svg>
