<?xml version="1.0" encoding="utf-8"?>
<!-- Generator: Adobe Illustrator 16.0.0, SVG Export Plug-In . SVG Version: 6.00 Build 0)  -->
<!DOCTYPE svg PUBLIC "-//W3C//DTD SVG 1.1//EN" "http://www.w3.org/Graphics/SVG/1.1/DTD/svg11.dtd">
<svg version="1.1" id="Layer_1" xmlns="http://www.w3.org/2000/svg" xmlns:xlink="http://www.w3.org/1999/xlink" x="0px" y="0px"
	 width="2199.05px" height="335.611px" viewBox="0 0 2199.05 335.611" enable-background="new 0 0 2199.05 335.611"
	 xml:space="preserve">
<g>
	<g>
		<path fill="#00AEEF" d="M196.907,21.471L193.095,0h-25.3h-25.292l-4.748,26.725c-17.539,3.718-33.911,10.624-48.462,20.089
			L67.032,31.267l-35.773,35.77l15.547,22.261c-9.461,14.556-16.363,30.924-20.089,48.467L0,142.512V193.1l22.991,4.082
			C28.623,103.016,103.51,27.408,196.907,21.471z"/>
		<path fill="#00AEEF" d="M308.873,137.765c-1.777-8.401-4.31-16.522-7.478-24.317l-53.588,38.083
			c1.065,5.258,1.623,10.697,1.623,16.273c0,45.084-36.547,81.631-81.635,81.631c-36.186,0-66.861-23.558-77.558-56.167
			c-18.105,20.861-28.828,46.612-28.828,74.454c0,11.976,2.164,23.883,6.49,36.023l21.394-14.946
			c14.552,9.46,30.923,16.372,48.471,20.089l4.748,26.725h25.283h25.291l4.748-26.725c17.548-3.717,33.911-10.628,48.471-20.089
			l22.261,15.547l35.766-35.765l-15.548-22.27c9.469-14.551,16.372-30.919,20.089-48.467l26.726-4.743v-50.587L308.873,137.765z"/>
		<path fill="#2BB673" d="M86.967,179.166c3.048-3.117,6.25-6.147,9.641-9.053c29.962-25.644,70.028-39.77,112.808-39.77h5.821
			v30.052l29.206-20.755l52.017-36.963l30.236-21.488l-27.463-19.256l-37.216-26.094L214.541,2.554v28.824v1.305h-5.813
			c-96.204,0-174.474,78.897-174.474,175.874c0,5.168,0.258,10.332,0.721,15.475c0.961,10.474,2.876,20.87,5.718,31.043
			c2.584,9.263,5.933,18.354,10.01,27.163c-0.626-4.825-0.936-9.667-0.936-14.518C49.768,234.797,62.903,203.801,86.967,179.166z"/>
	</g>
	<g>
		<path fill="#00AEEF" d="M395.978,85.188h45.106v117.958c0,8.293,1.794,14.691,5.383,19.181c3.58,4.499,8.705,6.739,15.358,6.739
			s11.77-2.223,15.358-6.67c3.589-4.447,5.383-10.867,5.383-19.25V85.188h44.591v117.958c0,8.293,1.769,14.691,5.314,19.181
			c3.541,4.499,8.684,6.739,15.423,6.739c6.568,0,11.646-2.223,15.234-6.67c3.58-4.447,5.374-10.867,5.374-19.25V85.188h45.243
			v114.976c0,22.559-6.009,40.51-18.02,53.86c-12.011,13.35-27.953,20.029-47.832,20.029c-7.954,0-15.492-1.623-22.617-4.859
			c-7.13-3.245-13.934-8.104-20.415-14.586c-6.396,6.396-13.204,11.238-20.416,14.518c-7.22,3.279-14.758,4.928-22.622,4.928
			c-19.875,0-35.821-6.696-47.832-20.098c-5.962-6.739-10.457-14.56-13.483-23.454c-3.022-8.903-4.533-19.014-4.533-30.337V85.188z"
			/>
		<path fill="#00AEEF" d="M632.796,204.962c0-9.161,1.644-17.78,4.928-25.862c3.284-8.079,8.207-15.574,14.775-22.489
			c6.052-6.224,13.178-11.083,21.39-14.582c8.211-3.502,16.633-5.25,25.279-5.25c8.988,0,17.518,1.704,25.601,5.117
			c8.079,3.417,15.23,8.34,21.45,14.779c6.224,6.438,10.997,13.805,14.328,22.102c3.322,8.293,4.988,17.024,4.988,26.185
			c0,4.752-0.386,9.244-1.167,13.477c-0.773,4.241-2.035,8.516-3.761,12.834c-3.193,8.036-7.95,15.315-14.26,21.84
			c-6.306,6.525-13.5,11.496-21.578,14.912c-8.083,3.408-16.612,5.117-25.601,5.117c-8.817,0-17.196-1.683-25.146-5.057
			c-7.954-3.365-15.148-8.362-21.583-14.972c-6.438-6.61-11.324-14.02-14.65-22.227
			C634.462,222.679,632.796,214.034,632.796,204.962z M675.318,204.7c0,7.349,2.331,13.652,6.997,18.923
			c4.666,5.271,10.285,7.907,16.853,7.907c6.567,0,12.25-2.61,17.045-7.838c4.794-5.229,7.194-11.558,7.194-18.992
			c0-7.345-2.378-13.65-7.13-18.926c-4.756-5.267-10.457-7.907-17.11-7.907c-6.482,0-12.08,2.614-16.789,7.842
			C677.67,190.942,675.318,197.27,675.318,204.7z"/>
		<path fill="#00AEEF" d="M784.593,270.807V139.372h37.98v19.703c4.146-6.744,9.525-11.71,16.135-14.908
			c6.611-3.198,14.973-4.794,25.082-4.794h4.928v39.792h-1.815c-14.951,0-25.73,3.306-32.34,9.916s-9.916,17.394-9.916,32.346
			v49.381H784.593z"/>
		<path fill="#00AEEF" d="M881.81,270.807V85.188h41.217v96.44h7.649c4.061,0,7.495-1.403,10.307-4.211
			c2.808-2.807,5.722-8.147,8.748-16.011l8.555-22.033h43.556l-15.427,39.792c-1.382,3.717-3.545,6.916-6.482,9.594
			c-2.936,2.679-6.438,4.709-10.5,6.091c10.195,2.421,17.608,6.851,22.231,13.286c4.623,6.441,6.937,15.67,6.937,27.68v34.993
			H957.38v-29.945c0-7.34-1.571-12.68-4.713-16.002c-3.142-3.331-8.113-4.997-14.917-4.997h-14.723v50.944H881.81z"/>
		<path fill="#00AEEF" d="M1014.801,177.867c0-12.963,2.378-25.146,7.13-36.551c4.751-11.41,11.709-21.759,20.87-31.048
			c9.16-9.289,19.509-16.312,31.043-21.063c11.539-4.751,23.656-7.129,36.362-7.129c12.873,0,25.081,2.42,36.619,7.258
			c11.534,4.842,21.797,11.796,30.786,20.87c8.727,8.817,15.509,19.102,20.351,30.851c4.837,11.753,7.258,24.025,7.258,36.813
			c0,13.05-2.356,25.429-7.065,37.137c-4.713,11.71-11.56,22.038-20.544,30.983c-8.989,8.945-19.295,15.856-30.919,20.741
			c-11.62,4.876-23.785,7.323-36.486,7.323c-12.878,0-24.953-2.404-36.229-7.194c-11.28-4.799-21.54-11.839-30.786-21.128
			c-9.25-9.289-16.291-19.703-21.132-31.241C1017.222,202.953,1014.801,190.745,1014.801,177.867z M1062.113,177.61
			c0,13.912,4.688,25.751,14.066,35.514c9.375,9.77,20.716,14.646,34.027,14.646c13.135,0,24.368-4.859,33.701-14.577
			c9.332-9.725,14.002-21.585,14.002-35.583c0-14.084-4.627-25.927-13.874-35.517c-9.246-9.594-20.522-14.388-33.829-14.388
			c-13.312,0-24.652,4.816-34.027,14.453C1066.801,151.794,1062.113,163.612,1062.113,177.61z"/>
		<path fill="#00AEEF" d="M1224.796,270.807V139.372h37.98v19.703c4.147-6.744,9.525-11.71,16.136-14.908
			c6.611-3.198,14.972-4.794,25.082-4.794h4.928v39.792h-1.816c-14.95,0-25.729,3.306-32.339,9.916s-9.916,17.394-9.916,32.346
			v49.381H1224.796z"/>
		<path fill="#00AEEF" d="M1453.064,85.188v109.142c0,12.363-0.477,21.044-1.425,26.058c-0.777,5.357-2.25,10.328-4.408,14.903
			c-5.271,11.582-13.269,20.785-23.982,27.61c-10.714,6.833-22.729,10.242-36.031,10.242c-19.188,0-35.002-6.353-47.446-19.059
			c-12.444-12.697-18.664-28.983-18.664-48.864c0-19.617,6.233-35.842,18.698-48.673c12.47-12.835,28.236-19.252,47.308-19.252
			c1.64,0,3.275,0,4.92,0c1.549,0.262,3.232,0.477,5.043,0.648c1.812,0.176,4.485,0.648,8.027,1.43v43.033l-9.306-2.464
			c-2.584-0.515-4.954-0.777-7.109-0.777c-7.752,0-13.912,2.357-18.479,7.065c-4.563,4.713-6.847,11.041-6.847,18.99
			c0,8.128,2.176,14.498,6.529,19.117c4.353,4.627,10.19,6.937,17.518,6.937c7.842,0,13.874-2.507,18.097-7.521
			c4.224-5.005,6.336-12.223,6.336-21.645V85.188H1453.064z"/>
		<path fill="#00AEEF" d="M1608.093,221.941c-6.915,16.329-16.612,28.949-29.099,37.852c-12.491,8.903-26.597,13.35-42.325,13.35
			c-8.641,0-17.024-1.683-25.146-5.057c-8.125-3.365-15.358-8.293-21.711-14.775c-6.354-6.481-11.195-13.873-14.518-22.167
			c-3.331-8.293-4.992-17.024-4.992-26.182c0-9.336,1.661-18.084,4.992-26.249c3.322-8.168,8.229-15.535,14.71-22.102
			c6.224-6.224,13.329-11.041,21.326-14.453c7.992-3.413,16.439-5.121,25.338-5.121c13.222,0,25.15,3.524,35.779,10.564
			c10.628,7.044,19.397,17.303,26.313,30.786l-63.649,43.297l-15.942-24.118l34.507-23.939c-2.077-1.396-4.348-2.481-6.808-3.267
			c-2.468-0.781-5.039-1.176-7.718-1.176c-7.958,0-14.831,3.091-20.621,9.268c-5.795,6.181-8.692,13.762-8.692,22.75
			c0,9.16,2.812,16.85,8.431,23.074c5.619,6.225,12.486,9.332,20.612,9.332c7.606,0,14.65-2.292,21.132-6.868
			c6.482-4.584,12.059-11.237,16.725-19.966L1608.093,221.941z"/>
		<path fill="#00AEEF" d="M1622.743,270.807V139.372h37.98v19.703c4.146-6.744,9.525-11.71,16.136-14.908
			c6.61-3.198,14.973-4.794,25.081-4.794h4.928v39.792h-1.815c-14.951,0-25.729,3.306-32.34,9.916
			c-6.611,6.61-9.916,17.394-9.916,32.346v49.381H1622.743z"/>
		<path fill="#00AEEF" d="M1835.455,128.74l-4.018-0.258h-6.354c-20.136,0-35.606,4.258-46.406,12.766
			c-10.805,8.517-16.204,20.72-16.204,36.62c0,16.076,5.383,28.37,16.14,36.879c10.758,8.517,26.249,12.766,46.471,12.766h6.482
			h3.889v43.294h-4.799c-16.071,0-30.16-1.296-42.256-3.889c-12.101-2.593-22.338-6.524-30.721-11.796
			c-13.479-8.722-23.94-19.806-31.371-33.25c-7.43-13.434-11.147-28.102-11.147-44.005c0-15.985,3.653-30.61,10.955-43.878
			c7.302-13.264,17.822-24.304,31.563-33.117c8.206-5.186,18.385-9.096,30.527-11.731c12.14-2.636,26.292-3.954,42.449-3.954h4.799
			V128.74z"/>
		<path fill="#00AEEF" d="M1846.079,270.807l20.094-150.232c1.554-12.097,5.335-21.497,11.341-28.193
			c6.005-6.696,13.762-10.044,23.27-10.044c8.813,0,16.222,2.893,22.231,8.684c6.005,5.791,10.435,14.389,13.285,25.794
			l12.187,51.463c1.206,5.01,2.244,10.5,3.107,16.462l2.207,20.479c0-3.541,0.214-7.13,0.647-10.757
			c0.172-1.296,0.665-4.709,1.489-10.242c0.82-5.529,1.881-10.843,3.177-15.942l12.183-51.463
			c2.592-11.233,6.936-19.789,13.027-25.665c6.091-5.876,13.633-8.813,22.621-8.813c9.332,0,16.999,3.305,23.009,9.916
			c6.005,6.61,9.829,16.05,11.469,28.322l20.223,150.232h-44.333l-10.367-116.012l-1.429-17.63l-1.034-16.59l-3.761,19.312
			c-0.776,4.236-1.253,6.83-1.425,7.778c-0.176,0.953-0.648,2.897-1.426,5.833l-19.315,90.223
			c-2.246,10.285-5.293,17.625-9.14,22.029c-3.846,4.413-9.053,6.61-15.615,6.61c-6.482,0-11.625-2.198-15.428-6.61
			c-3.803-4.404-6.868-11.744-9.203-22.029l-19.445-90.223l-6.22-30.979l-0.392-1.944c0,4.666-0.128,9.417-0.386,14.26
			c-0.262,4.837-0.738,10.5-1.425,16.981l-0.262,2.979l-10.371,116.012H1846.079z"/>
		<path fill="#00AEEF" d="M2073.574,270.807v-44.333h63.908c3.626,0,6.477-0.773,8.554-2.327c2.073-1.563,3.108-3.803,3.108-6.739
			c0-2.507-1.035-5.057-3.108-7.652c-2.077-2.592-5.275-5.228-9.593-7.907l-35.646-21.518c-8.126-5.01-14.607-11.47-19.445-19.381
			c-4.842-7.907-7.259-16.05-7.259-24.433c0-8.122,1.361-15.466,4.082-22.034c2.722-6.567,6.848-12.229,12.38-16.981
			c5.01-4.323,11.341-7.457,18.99-9.401s19.639-2.915,35.972-2.915h42.385v42.518h-48.608c-6.826,0-11.492,0.541-13.998,1.618
			c-2.508,1.082-3.761,2.919-3.761,5.512c0,2.507,1.018,4.988,3.048,7.452s5.073,4.949,9.139,7.452l34.868,20.741
			c9.851,5.962,17.389,13.114,22.617,21.454s7.843,17.389,7.843,27.156c0,8.465-1.748,16.243-5.251,23.334
			c-3.498,7.083-8.447,12.92-14.839,17.497c-5.271,3.717-11.495,6.524-18.668,8.422c-3.455,0.781-7.906,1.391-13.35,1.82
			c-5.442,0.429-11.972,0.644-19.574,0.644h-2.85H2073.574z"/>
	</g>
</g>
</svg>
